<svg xmlns="http://www.w3.org/2000/svg" viewBox="0 0 27 33.75"><path d="M3.88,5.88C2.5,3.89,3.71,1.46,5.81.25l8.19,14,8.2-14c2.09,1.21,3.31,3.64,1.93,5.63L15.82,17.37l3.51,6a5.61,5.61,0,1,1-1.79,1.43L14,19.89l-3.54,4.9a5.63,5.63,0,0,1-.33,7.53A5.69,5.69,0,0,1,6.45,34,5.63,5.63,0,1,1,8.68,23.36l3.5-6ZM9.5,28.38a3.34,3.34,0,0,0-1-2.39,3.38,3.38,0,1,0,0,4.77A3.34,3.34,0,0,0,9.5,28.38Zm15.75,0a3.34,3.34,0,0,0-1-2.39,3.38,3.38,0,1,0,0,4.77A3.34,3.34,0,0,0,25.25,28.38Z" transform="translate(-0.5 -0.25)" style="fill:#ec008c"/></svg>