<svg xmlns="http://www.w3.org/2000/svg" viewBox="0 0 53.38 41.94"><path d="M4,20.05H26.89v3.81H4Z" transform="translate(-0.21 -0.98)"/><path d="M.21,10.51H19.27v3.82H.21Z" transform="translate(-0.21 -0.98)"/><path d="M53.43,21.2,47.71,7.86A1.86,1.86,0,0,0,47,7a1.9,1.9,0,0,0-1-.32H40.24V2.89A1.91,1.91,0,0,0,38.33,1H7.83V4.8h28.6V28.73a7.58,7.58,0,0,0-2.24,2,7.7,7.7,0,0,0-1.31,2.68h-12a7.62,7.62,0,1,0,0,3.81h12a7.58,7.58,0,0,0,14.71,0h4.09a1.91,1.91,0,0,0,1.9-1.9V22A1.93,1.93,0,0,0,53.43,21.2ZM13.55,39.11A3.78,3.78,0,0,1,10,36.75a3.76,3.76,0,0,1-.22-2.2,3.79,3.79,0,0,1,3-3,3.81,3.81,0,0,1,4.55,3.74A3.81,3.81,0,0,1,16.25,38,3.86,3.86,0,0,1,13.55,39.11Zm26.69-28.6H44.7l4.09,9.54H40.24Zm0,28.6a3.88,3.88,0,0,1-2.12-.64,3.85,3.85,0,0,1-1.62-3.92,3.81,3.81,0,0,1,6.91-1.37A3.81,3.81,0,0,1,42.93,38,3.82,3.82,0,0,1,40.24,39.11Zm9.53-5.72H47.59a7.6,7.6,0,0,0-7.35-5.72V23.86h9.53Z" transform="translate(-0.21 -0.98)"/></svg>