<svg xmlns="http://www.w3.org/2000/svg" viewBox="0 0 10.76 20"><path d="M0,10.18a1.9,1.9,0,0,0,.45,1.06l6.89,8a1.86,1.86,0,0,0,.59.49,1.83,1.83,0,0,0,.73.22,1.8,1.8,0,0,0,.76-.08,1.87,1.87,0,0,0,.66-.37,1.82,1.82,0,0,0,.47-.6,2.09,2.09,0,0,0,.2-.74,2,2,0,0,0-.5-1.41L4.43,10l5.83-6.79a1.92,1.92,0,0,0,.39-.66,1.93,1.93,0,0,0,.11-.75,2.09,2.09,0,0,0-.2-.74,1.82,1.82,0,0,0-.47-.6A1.87,1.87,0,0,0,9.43.09,1.8,1.8,0,0,0,8.67,0a1.83,1.83,0,0,0-.73.22,1.86,1.86,0,0,0-.59.49l-6.89,8a2,2,0,0,0-.37.66A1.78,1.78,0,0,0,0,10.18Z" transform="translate(0 0)"/></svg>