<svg xmlns="http://www.w3.org/2000/svg" viewBox="0 0 18 15.46"><path d="M18,4.08a.4.4,0,0,0-.1-.15.46.46,0,0,0-.15-.09l-.18,0H12.66C11.73,2.74,11.12,0,9,0S6.29,2.74,5.33,3.81H.44l0,0a.49.49,0,0,0-.17.06A.28.28,0,0,0,.1,4,.35.35,0,0,0,0,4.16a.55.55,0,0,0,0,.18L1.48,15.05a.48.48,0,0,0,.15.29.47.47,0,0,0,.3.12H16.07a.45.45,0,0,0,.44-.4L18,4.35V4.26A.39.39,0,0,0,18,4.08ZM9,2.38c.58,0,1.14.64,1.71,1.43H7.3C7.89,3,8.47,2.38,9,2.38Zm6.62,12.18H2.32L1,4.7H4.47a1.11,1.11,0,0,0-.36.08A1.16,1.16,0,0,0,3.72,5a1.19,1.19,0,0,0-.36.86,1.16,1.16,0,0,0,.18.68A1.17,1.17,0,0,0,4.09,7a1.23,1.23,0,0,0,.71.06,1.17,1.17,0,0,0,.62-.35,1.17,1.17,0,0,0,.35-.62.87.87,0,0,0,0-.32A11.92,11.92,0,0,0,6.65,4.7h4.72a12.74,12.74,0,0,0,.86,1.15,1.15,1.15,0,0,0,.33.73,1.17,1.17,0,0,0,.85.35,1.21,1.21,0,0,0,.86-.35,1.19,1.19,0,0,0,.35-.85,1.21,1.21,0,0,0-.35-.86A1.56,1.56,0,0,0,14,4.7h3Z" transform="translate(0)"/><polygon points="2.61 10.29 2.38 10.32 2.82 13.68 2.84 13.78 2.94 13.78 5.85 13.78 5.85 13.55 3.04 13.55 2.61 10.29"/></svg>