<svg xmlns="http://www.w3.org/2000/svg" viewBox="0 0 25.84 21.85"><path d="M24.84,6.6H23.09L16.92.3a1,1,0,1,0-1.53,1.29l.11.11,4.82,4.9H5.56l4.82-4.9a1,1,0,0,0,0-1.41A1,1,0,0,0,9,.25s0,0-.05,0L2.75,6.6H1a1,1,0,0,0,0,2H2.28c.14,1.22.25,2.3.35,3.3.81,8.18,1.29,9.9,10.29,9.9s9.48-1.72,10.29-9.9c.1-1,.21-2.11.35-3.33h1.28a1,1,0,0,0,0-2Zm-3.62,5.13c-.75,7.61-.8,8.07-8.3,8.07s-7.55-.46-8.3-8.07c-.09-.94-.2-2-.33-3.13H21.55C21.42,9.74,21.31,10.79,21.22,11.73Z" transform="translate(0 0.05)"/><path d="M15.09,17.4a1,1,0,0,0,1-1V12a1,1,0,0,0-2,0v4.4A1,1,0,0,0,15.09,17.4Z" transform="translate(0 0.05)"/><path d="M10.75,17.4a1,1,0,0,0,1-1V12a1,1,0,0,0-2,0v4.4A1,1,0,0,0,10.75,17.4Z" transform="translate(0 0.05)"/></svg>