<svg xmlns="http://www.w3.org/2000/svg" viewBox="0 0 100 125.06"><path d="M.61,111.19,26.28,125h.18a1.27,1.27,0,0,0,.47.09,1.5,1.5,0,0,0,.3,0L99,106.66a1.39,1.39,0,0,0,.75-.51,1.43,1.43,0,0,0,.27-.87L92.49,27.05a1.11,1.11,0,0,0-.41-.79L92,26.2l-.14-.11L78.47,18.51a1.38,1.38,0,0,0-1.89.51,1.38,1.38,0,0,0-.13,1.05,1.42,1.42,0,0,0,.64.84L87.3,26.65,72,30c-1.1-11.17-3.47-24.11-8.6-28.4A6.33,6.33,0,0,0,60.85.24,6.19,6.19,0,0,0,58,.11c-8.85,1.61-12,20.66-13.14,36L26.53,40.19,11.38,27.79l30.89-6.88a1.46,1.46,0,0,0,.65-.65,1.39,1.39,0,0,0,.1-.9,1.37,1.37,0,0,0-1.34-1.07L30.44,20.8c1.12-6.44,3.86-15.26,7.7-16.41,1.79-.53,4,.66,6.42,3.54a1.34,1.34,0,0,0,.94.42,1.31,1.31,0,0,0,1-.34,1.35,1.35,0,0,0,.47-.91,1.41,1.41,0,0,0-.3-1c-3.24-3.76-6.32-5.23-9.3-4.36-6.61,2-9.19,15.64-9.81,19.69L8,25.8a1.06,1.06,0,0,0-.34.12,1.22,1.22,0,0,0-.36.32l-.08.14a1.17,1.17,0,0,0-.18.41,1.34,1.34,0,0,0,0,.4c-.58,3-2.12,16.69-7,82.64a1.44,1.44,0,0,0,.09.77A1.43,1.43,0,0,0,.61,111.19ZM58.46,2.82a3.68,3.68,0,0,1,1.68.09,3.78,3.78,0,0,1,1.46.82c4.3,3.61,6.54,15.72,7.63,26.9l-21.6,4.84c1.19-15,4.15-31.44,10.8-32.65Zm-14.26,52a1.38,1.38,0,0,0,.41,1,1.35,1.35,0,0,0,1,.4,1.34,1.34,0,0,0,1-.4,1.38,1.38,0,0,0,.41-1c0-4,0-10,.47-16.39l22-5c.5,5.92.66,11.36.66,14.82a1.35,1.35,0,0,0,.41,1,1.38,1.38,0,0,0,2.35-1c0-.65,0-7.29-.69-15.43l17.7-4,7.24,75.5L28.27,122l-.71-79.24,17-3.8C44.15,46.7,44.19,53,44.2,54.78ZM9.25,29.69,24.84,42.34l.7,79.13L2.7,109.19C4.82,80.64,8.05,39.47,9.25,29.69Z" transform="translate(0 0)" style="fill:#333"/><path d="M35.84,106.25a1.42,1.42,0,0,0,.52.73,1.39,1.39,0,0,0,.86.26,1.27,1.27,0,0,0,.39,0L87.13,92.65a1.23,1.23,0,0,0,.48-.25A1.39,1.39,0,0,0,88,92a1.52,1.52,0,0,0,.16-.51,1.42,1.42,0,0,0-.05-.54,1.26,1.26,0,0,0-.25-.47,1.39,1.39,0,0,0-.41-.35A1.52,1.52,0,0,0,86.9,90a1.42,1.42,0,0,0-.54.05L36.78,104.54a1.3,1.3,0,0,0-.48.25,1.23,1.23,0,0,0-.34.41,1.17,1.17,0,0,0-.16.51A1.41,1.41,0,0,0,35.84,106.25Z" transform="translate(0 0)" style="fill:#333"/></svg>