<svg width="46" height="40" viewBox="0 0 46 40" fill="none" xmlns="http://www.w3.org/2000/svg">
<path fill-rule="evenodd" clip-rule="evenodd" d="M24.5 34.41L22.7 32.41C20.63 34.71 17.77 37.98 15.79 40.01C10.9955 35.1265 6.76561 29.7192 3.18 23.89C-3.53 12.63 1 -5.81145e-07 10.83 -5.81145e-07C12.9486 -0.0290068 15.031 0.550602 16.83 1.67C18.5281 0.551712 20.5168 -0.0442882 22.55 -0.0442882C24.5833 -0.0442882 26.5719 0.551712 28.27 1.67C29.5524 0.840588 30.9962 0.292609 32.506 0.0622333C34.0158 -0.168143 35.5573 -0.0756764 37.0288 0.333529C38.5002 0.742734 39.8681 1.45937 41.0422 2.43614C42.2163 3.4129 43.1699 4.62758 43.84 6C46.59 11.39 45.36 18.21 42 23.92C38.4454 29.7531 34.22 35.1499 29.41 40C27.72 38.26 26.13 36.26 24.5 34.43V34.41ZM26 33.07C27.24 34.46 28.41 35.78 29.46 37.07C33.5204 32.7027 37.1412 27.9465 40.27 22.87C43.27 17.79 44.48 11.64 42.04 6.87C41.52 5.81549 40.7925 4.87676 39.9011 4.10999C39.0098 3.34321 37.9729 2.76417 36.8525 2.40752C35.7322 2.05087 34.5514 1.92394 33.3808 2.03434C32.2102 2.14473 31.0739 2.49018 30.04 3.05C31.5228 4.42696 32.6516 6.1413 33.3305 8.04755C34.0095 9.9538 34.2185 11.9957 33.94 14C33.29 19.56 28.74 25.56 24.05 30.91C24.71 31.67 25.36 32.4 26 33.12V33.07ZM21.37 30.86C16.31 25 11.13 18.37 11.13 12C11.1221 10.3023 11.4746 8.62216 12.1641 7.07072C12.8537 5.51929 13.8645 4.13182 15.13 3C14.0979 2.4414 12.9617 2.10151 11.7924 2.00156C10.6231 1.90162 9.44574 2.04374 8.33381 2.41908C7.22187 2.79442 6.19922 3.39491 5.3297 4.18307C4.46017 4.97124 3.76242 5.93016 3.28 7C0.910001 11.78 2 17.9 4.91 22.86C8.0753 27.9057 11.7116 32.6402 15.77 37C17.48 35.05 19.54 32.85 21.37 30.82V30.86ZM13.26 13.69C13.97 18.53 18.26 24.19 22.72 29.34C27.46 23.91 32 18 32 12.3C32.0198 10.7628 31.6992 9.24032 31.0613 7.84164C30.4233 6.44296 29.4838 5.20277 28.31 4.21C24.94 7.09 23.59 12.3 23.59 16.21H21.59C21.59 12.21 20.24 7.02 16.85 4.15C15.47 5.27872 14.4116 6.75101 13.7814 8.41872C13.1512 10.0864 12.9714 11.8907 13.26 13.65V13.69ZM21.49 2.09C20.4755 2.26386 19.496 2.6016 18.59 3.09C20.4738 4.96075 21.8503 7.28025 22.59 9.83C23.3368 7.28628 24.7125 4.97171 26.59 3.1C25.0401 2.23116 23.2541 1.87747 21.49 2.09Z" fill="#333333"/>
</svg>
