<svg xmlns="http://www.w3.org/2000/svg" viewBox="0 0 201.1 40.07"><path d="M24.5,34.41l-1.8-2c-2.07,2.3-4.93,5.57-6.91,7.6A91.51,91.51,0,0,1,3.18,23.89C-3.53,12.63,1,0,10.83,0a11.06,11.06,0,0,1,6,1.67,10.42,10.42,0,0,1,11.44,0A10.77,10.77,0,0,1,41,2.44,10.67,10.67,0,0,1,43.84,6c2.75,5.39,1.52,12.21-1.84,17.92A87.39,87.39,0,0,1,29.41,40c-1.69-1.74-3.28-3.74-4.91-5.57ZM26,33.07c1.24,1.39,2.41,2.71,3.46,4a91,91,0,0,0,10.81-14.2c3-5.08,4.21-11.23,1.77-16A8.85,8.85,0,0,0,39.9,4.11a8.58,8.58,0,0,0-3-1.7A8.67,8.67,0,0,0,30,3.05a12.59,12.59,0,0,1,3.9,11c-.65,5.56-5.2,11.56-9.89,16.91.66.76,1.31,1.49,1.95,2.21Zm-4.63-2.21C16.31,25,11.13,18.37,11.13,12a12,12,0,0,1,4-9,8.53,8.53,0,0,0-6.8-.58,8.43,8.43,0,0,0-3,1.76A8.53,8.53,0,0,0,3.28,7C.91,11.78,2,17.9,4.91,22.86A94.3,94.3,0,0,0,15.77,37c1.71-2,3.77-4.15,5.6-6.18ZM13.26,13.69c.71,4.84,5,10.5,9.46,15.65C27.46,23.91,32,18,32,12.3a10.42,10.42,0,0,0-3.69-8.09c-3.37,2.88-4.72,8.09-4.72,12h-2c0-4-1.35-9.19-4.74-12.06a10.14,10.14,0,0,0-3.59,9.5Zm8.23-11.6a9.42,9.42,0,0,0-2.9,1,15.67,15.67,0,0,1,4,6.74,15.8,15.8,0,0,1,4-6.73A8.4,8.4,0,0,0,21.49,2.09Z" transform="translate(0 0.06)"/><path d="M69.81,25.79a5.62,5.62,0,0,1-2.56,1.82,10.39,10.39,0,0,1-3.73.62,7.33,7.33,0,0,1-3.8-1,6.49,6.49,0,0,1-2.55-2.78,9.83,9.83,0,0,1-.93-4.23V18.92a9,9,0,0,1,1.85-6,6.44,6.44,0,0,1,5.17-2.18,6.82,6.82,0,0,1,4.53,1.41,6.11,6.11,0,0,1,2,4.05H66.89a3.26,3.26,0,0,0-3.57-3.08,3.5,3.5,0,0,0-3,1.44,7.3,7.3,0,0,0-1.07,4.21V20a7,7,0,0,0,1.16,4.3,3.86,3.86,0,0,0,3.25,1.53,4.3,4.3,0,0,0,3.23-1V21.5H63.34V19.25h6.47ZM95,20.38H88v5.25h8.19V28H85.07V10.94H96.14v2.39H88V18h7Zm28.16-7h-5.32V28h-2.94V13.33h-5.27V10.94H123.2Zm17.22,12.3h7.74V28H137.45V10.94h3Zm34.88-5.72a10.49,10.49,0,0,1-.86,4.41A6.6,6.6,0,0,1,172,27.23a6.81,6.81,0,0,1-3.7,1,6.89,6.89,0,0,1-3.7-1,6.73,6.73,0,0,1-2.51-2.9,10.16,10.16,0,0,1-.89-4.32v-1a10.36,10.36,0,0,1,.88-4.41,6.64,6.64,0,0,1,2.49-2.92,7.25,7.25,0,0,1,7.4,0,6.52,6.52,0,0,1,2.49,2.88A10.15,10.15,0,0,1,175.3,19Zm-3-.89a7.38,7.38,0,0,0-1.08-4.34,3.49,3.49,0,0,0-3-1.52,3.53,3.53,0,0,0-3,1.52,7.39,7.39,0,0,0-1.1,4.25v1a7.47,7.47,0,0,0,1.09,4.35,3.54,3.54,0,0,0,3.05,1.54,3.47,3.47,0,0,0,3-1.5,7.54,7.54,0,0,0,1.07-4.39Zm27.75,1.75h-6.87V28h-3V10.94H201.1v2.39h-7.88V18.4h6.87Z" transform="translate(0 0.06)"/></svg>