<svg xmlns="http://www.w3.org/2000/svg" viewBox="0 0 22 24"><path d="M11,24c-2.41,0-4.17-.06-5.54-.2A10.73,10.73,0,0,1,2.1,23,3.13,3.13,0,0,1,.45,21.52,5.6,5.6,0,0,1,0,19a5.75,5.75,0,0,1,.44-2.52A3.19,3.19,0,0,1,2.1,15a10.73,10.73,0,0,1,3.36-.76C6.83,14.06,8.59,14,11,14s4.17.06,5.54.2A10.73,10.73,0,0,1,19.9,15a3.19,3.19,0,0,1,1.66,1.52A5.75,5.75,0,0,1,22,19a5.6,5.6,0,0,1-.45,2.52A3.13,3.13,0,0,1,19.9,23a10.73,10.73,0,0,1-3.36.76C15.17,23.94,13.41,24,11,24Zm0-8c-2.34,0-4,.06-5.34.19a9.29,9.29,0,0,0-2.73.59,1.19,1.19,0,0,0-.69.58A4.06,4.06,0,0,0,2,19a4.06,4.06,0,0,0,.24,1.64,1.19,1.19,0,0,0,.69.58,9.29,9.29,0,0,0,2.73.59c1.3.13,3,.19,5.34.19s4-.06,5.34-.19a9.29,9.29,0,0,0,2.73-.59,1.19,1.19,0,0,0,.69-.58A4.06,4.06,0,0,0,20,19a4.06,4.06,0,0,0-.24-1.64,1.19,1.19,0,0,0-.69-.58,9.29,9.29,0,0,0-2.73-.59C15,16.06,13.34,16,11,16Z"/><path d="M11,12a6,6,0,1,1,6-6A6,6,0,0,1,11,12ZM11,2a4,4,0,1,0,4,4A4,4,0,0,0,11,2Z"/></svg>