<svg xmlns="http://www.w3.org/2000/svg" viewBox="0 0 15 15"><path d="M14.51,12.94c-.47-.49-1-1-1.43-1.46l-3-3L9.67,8l.87-.89c1-1,1.89-1.92,2.84-2.87.39-.4.77-.8,1.17-1.19a1.47,1.47,0,0,0,0-2.12,1.71,1.71,0,0,0-2.26,0s0,0,0,0c-.49.48-1,1-1.44,1.46l-3,3L7.5,5.8,6.72,5,3.89,2.12,2.72.93A1.69,1.69,0,0,0,.47.93,1.45,1.45,0,0,0,0,2,1.48,1.48,0,0,0,.47,3s0,0,0,0c.47.49,1,1,1.43,1.46l3,3L5.33,8l-.87.89c-1,1-1.89,1.92-2.84,2.87-.39.4-.77.8-1.17,1.19a1.47,1.47,0,0,0,0,2.12,1.71,1.71,0,0,0,2.26,0l0,0c.49-.48,1-1,1.44-1.46l3-3,.37-.38.78.8,2.83,2.88,1.17,1.19a1.69,1.69,0,0,0,2.25,0A1.45,1.45,0,0,0,15,14a1.48,1.48,0,0,0-.47-1Z" transform="translate(0 -0.5)"/></svg>