<svg xmlns="http://www.w3.org/2000/svg" viewBox="0 0 31 31"><path d="M17.78,15.46,30.63,2.65A1.6,1.6,0,0,0,31,1.58a1.62,1.62,0,0,0-.45-1A1.56,1.56,0,0,0,28.44.47L15.59,13.29,2.74.45A1.54,1.54,0,0,0,1.64,0,1.56,1.56,0,0,0,.54.45a1.58,1.58,0,0,0-.45,1.1,1.56,1.56,0,0,0,.45,1.1L13.41,15.46.54,28.28a1.73,1.73,0,0,0-.39.5,1.61,1.61,0,0,0-.15.61A1.5,1.5,0,0,0,.11,30a1.42,1.42,0,0,0,.34.53,1.6,1.6,0,0,0,.53.34,1.53,1.53,0,0,0,.63.11,1.71,1.71,0,0,0,.62-.15,1.73,1.73,0,0,0,.5-.39L15.59,17.64,28.44,30.46a1.56,1.56,0,0,0,2.11-.08,1.55,1.55,0,0,0,.08-2.1Z" transform="translate(0)"/></svg>