<svg xmlns="http://www.w3.org/2000/svg" viewBox="0 0 10.76 20"><path d="M10.75,9.82a1.9,1.9,0,0,0-.45-1.06L3.41.72A1.86,1.86,0,0,0,2.82.23,1.83,1.83,0,0,0,2.09,0a1.74,1.74,0,0,0-.75.08A1.83,1.83,0,0,0,.67.46a2,2,0,0,0-.47.6A2.09,2.09,0,0,0,0,1.8a1.93,1.93,0,0,0,.11.75,1.92,1.92,0,0,0,.39.66L6.33,10,.5,16.79A2,2,0,0,0,0,18.2a2.09,2.09,0,0,0,.2.74,2,2,0,0,0,.47.6,1.83,1.83,0,0,0,.67.37,1.74,1.74,0,0,0,.75.08,1.83,1.83,0,0,0,.73-.22,1.86,1.86,0,0,0,.59-.49l6.89-8a1.87,1.87,0,0,0,.37-.66A1.78,1.78,0,0,0,10.75,9.82Z" transform="translate(0 0)"/></svg>