<svg xmlns="http://www.w3.org/2000/svg" viewBox="0 0 36.05 34.41"><path d="M1.67,34.48a.52.52,0,0,1-.29-.09.52.52,0,0,1-.2-.52l2.08-9.8A13.64,13.64,0,0,1,.07,15.38C.07,6.94,8.16.07,18.1.07c10.1,0,18,6.47,18,14.74,0,8.6-8.25,15.87-18,15.87h0a21.19,21.19,0,0,1-7.81-1.5L1.93,34.4A.5.5,0,0,1,1.67,34.48ZM18.1,1.07c-9.39,0-17,6.42-17,14.31a12.74,12.74,0,0,0,3.11,8.24.51.51,0,0,1,.11.43L2.4,32.93,10,28.19a.5.5,0,0,1,.46,0A19.49,19.49,0,0,0,18,29.68h.09c9.22,0,17-6.81,17-14.87C35.12,7.11,27.64,1.07,18.1,1.07Z" transform="translate(-0.07 -0.07)"/></svg>