<svg xmlns="http://www.w3.org/2000/svg" xmlns:xlink="http://www.w3.org/1999/xlink" viewBox="0 0 50 50"><defs><linearGradient id="a" x1="12.97" y1="12.97" x2="37.02" y2="37.02" gradientUnits="userSpaceOnUse"><stop offset="0" stop-color="#ffd521"/><stop offset="0.06" stop-color="#ffd020"/><stop offset="0.12" stop-color="#fec01e"/><stop offset="0.2" stop-color="#fca71b"/><stop offset="0.28" stop-color="#fa8316"/><stop offset="0.37" stop-color="#f85510"/><stop offset="0.46" stop-color="#f51e09"/><stop offset="0.5" stop-color="#f30005"/><stop offset="0.5" stop-color="#f20007"/><stop offset="0.6" stop-color="#e1003b"/><stop offset="0.69" stop-color="#d30067"/><stop offset="0.78" stop-color="#c70088"/><stop offset="0.86" stop-color="#bf00a0"/><stop offset="0.94" stop-color="#bb00af"/><stop offset="1" stop-color="#b900b4"/></linearGradient><linearGradient id="b" x1="20.98" y1="20.98" x2="29.02" y2="29.02" xlink:href="#a"/><linearGradient id="c" x1="7.32" y1="7.32" x2="42.68" y2="42.68" xlink:href="#a"/></defs><path d="M38.3,14.93A5.33,5.33,0,0,0,37,13a5.27,5.27,0,0,0-2-1.27,9.09,9.09,0,0,0-3.17-.59C30.09,11,29.55,11,25,11s-5.1,0-6.9.1a9.39,9.39,0,0,0-3.17.59,5.59,5.59,0,0,0-3.23,3.23,9.14,9.14,0,0,0-.59,3.17C11,19.9,11,20.44,11,25s0,5.09.1,6.89a9.33,9.33,0,0,0,.59,3.17A5.27,5.27,0,0,0,13,37a5.33,5.33,0,0,0,2,1.28,9.66,9.66,0,0,0,3.17.59c1.8.08,2.34.1,6.9.1s5.09,0,6.89-.1a9.6,9.6,0,0,0,3.17-.59,5.7,5.7,0,0,0,3.24-3.24,9.6,9.6,0,0,0,.59-3.17c.08-1.8.1-2.34.1-6.89s0-5.1-.1-6.9A9.66,9.66,0,0,0,38.3,14.93ZM25,33.76A8.77,8.77,0,1,1,33.76,25,8.77,8.77,0,0,1,25,33.76Zm9.11-15.82a2.05,2.05,0,1,1,2-2.05A2.05,2.05,0,0,1,34.11,17.94Z" style="fill:url(#a)"/><circle cx="25" cy="25" r="5.69" style="fill:url(#b)"/><path d="M25,0A25,25,0,1,0,50,25,25,25,0,0,0,25,0ZM42,32a12.44,12.44,0,0,1-.79,4.14,8.73,8.73,0,0,1-5,5A12.55,12.55,0,0,1,32,42c-1.82.09-2.4.11-7,.11s-5.21,0-7-.11a12.56,12.56,0,0,1-4.15-.79,8.42,8.42,0,0,1-3-2,8.29,8.29,0,0,1-2-3A12.52,12.52,0,0,1,8,32c-.08-1.82-.1-2.4-.1-7s0-5.21.1-7a12.8,12.8,0,0,1,.8-4.15,8.42,8.42,0,0,1,2-3,8.21,8.21,0,0,1,3-2A12.55,12.55,0,0,1,18,8c1.82-.09,2.4-.11,7-.11s5.21,0,7,.1a12.67,12.67,0,0,1,4.14.8,8.76,8.76,0,0,1,5,5A12.56,12.56,0,0,1,42,18c.09,1.82.11,2.4.11,7S42.05,30.21,42,32Z" style="fill:url(#c)"/></svg>