<svg xmlns="http://www.w3.org/2000/svg" viewBox="0 0 50 50"><path d="M25,0A25,25,0,1,0,50,25,25,25,0,0,0,25,0ZM39.32,36,34.94,36a3.14,3.14,0,0,1-2.18-.67c-1.64-1.12-3.19-4.05-4.39-3.67s-1.19,3-1.19,3a1.42,1.42,0,0,1-.27.86A1.6,1.6,0,0,1,26,36h-2a11.25,11.25,0,0,1-8.15-3.7c-4.15-4.33-7.83-12.92-7.83-12.92s-.21-.57,0-.84,1-.33,1-.33l4.69,0a2.09,2.09,0,0,1,.76.31,1.49,1.49,0,0,1,.41.55,31.7,31.7,0,0,0,1.76,3.65c2,3.39,2.87,4.13,3.54,3.76,1-.52.68-4.78.68-4.78a4.74,4.74,0,0,0-.49-2.24A2.25,2.25,0,0,0,19,18.66c-.26,0,.17-.65.73-.92a10.71,10.71,0,0,1,4.1-.42,8.19,8.19,0,0,1,2.3.23c1.62.39,1.07,1.9,1.07,5.51,0,1.16-.21,2.79.63,3.33.36.23,1.24,0,3.44-3.7A28.23,28.23,0,0,0,33,18.85a1.41,1.41,0,0,1,.43-.53,1.1,1.1,0,0,1,.64-.12l4.94,0s1.48-.17,1.72.5-.55,2.34-2.57,5c-3.31,4.41-3.68,4-.93,6.55A14.59,14.59,0,0,1,40.53,34C41.62,35.82,39.32,36,39.32,36Z" style="fill:#4d76a1"/></svg>