<svg xmlns="http://www.w3.org/2000/svg" viewBox="0 0 45.35 60"><path d="M7.73,1.6,11.88.35a8.12,8.12,0,0,1,9.76,4.44l2.58,5.75a8.09,8.09,0,0,1-1.87,9.27L17.84,24a.55.55,0,0,0-.13.18c-.48,1,.24,3.55,2.49,7.44,2.53,4.39,4.49,6.13,5.4,5.86l5.92-1.81a8.12,8.12,0,0,1,9,3l3.67,5.09a8.1,8.1,0,0,1-1,10.65l-3.15,3a9.39,9.39,0,0,1-8.36,2.37C22.85,58,15,50.89,7.94,38.72S-1.28,16.16,1.54,7.63a9.32,9.32,0,0,1,6.2-6ZM8.82,5.19a5.53,5.53,0,0,0-2.3,1.35A5.6,5.6,0,0,0,5.1,8.8c-2.43,7.36-.46,16.7,6.09,28S24.83,54.55,32.4,56.13a5.7,5.7,0,0,0,2.69-.1,5.61,5.61,0,0,0,2.33-1.33l3.15-3A4.37,4.37,0,0,0,41.11,46L37.44,40.9a4.37,4.37,0,0,0-4.82-1.63l-5.94,1.82c-3.28,1-6.37-1.76-9.73-7.58-2.84-4.92-3.83-8.47-2.61-10.95a4.24,4.24,0,0,1,.94-1.28l4.52-4.21a4.41,4.41,0,0,0,1.3-2.33,4.34,4.34,0,0,0-.3-2.66L18.22,6.33A4.39,4.39,0,0,0,13,3.94L8.82,5.19Z" transform="translate(-0.34 0)" style="fill:#333"/></svg>