<svg xmlns="http://www.w3.org/2000/svg" viewBox="0 0 58 59"><path d="M49.55,8.58a28.62,28.62,0,0,0-9.37-6.36A28.19,28.19,0,0,0,29.12,0,29.11,29.11,0,0,0,.24,29.24,29.44,29.44,0,0,0,4.1,43.85L0,59l15.31-4.07a28.51,28.51,0,0,0,13.8,3.56h0A29.1,29.1,0,0,0,58,29.26a29.4,29.4,0,0,0-2.18-11.2A29,29,0,0,0,49.55,8.58Zm-20.43,45h0a23.74,23.74,0,0,1-12.22-3.39L16,49.64,6.94,52.05l2.42-9-.57-.92A24.37,24.37,0,0,1,29.13,4.94a23.56,23.56,0,0,1,9.19,1.84,23.85,23.85,0,0,1,7.78,5.28,24.34,24.34,0,0,1,7,17.2A24.19,24.19,0,0,1,29.12,53.56Zm13.17-18.2C41.56,35,38,33.22,37.36,33s-1.14-.37-1.62.36-1.87,2.38-2.29,2.87-.84.54-1.56.18a19.72,19.72,0,0,1-5.81-3.63,21.71,21.71,0,0,1-4-5.06c-.42-.73-.05-1.12.32-1.49s.72-.85,1.08-1.28a5,5,0,0,0,.72-1.22,1.36,1.36,0,0,0-.06-1.28c-.18-.37-1.63-4-2.23-5.42s-1.18-1.23-1.62-1.25l-1.38,0a2.59,2.59,0,0,0-1.06.26,2.55,2.55,0,0,0-.87.66,8.22,8.22,0,0,0-2.52,6.09c0,3.59,2.58,7.07,2.94,7.56s5.09,7.86,12.33,11a43.42,43.42,0,0,0,4.11,1.54,9.85,9.85,0,0,0,4.55.29c1.39-.21,4.27-1.77,4.87-3.47a6.21,6.21,0,0,0,.42-3.48C43.49,35.91,43,35.72,42.29,35.36Z" transform="translate(0 0)" style="fill:#333;fill-rule:evenodd"/></svg>