<svg xmlns="http://www.w3.org/2000/svg" viewBox="0 0 70 99.23"><path d="M35,0A35,35,0,0,0,0,35c0,.57,0,1.13,0,1.69a1.66,1.66,0,0,0,.24.76,1.6,1.6,0,0,0,.14.42l18,35.41v.15h0V90.6a1.5,1.5,0,0,0,.05.37,1.62,1.62,0,0,0,.94,1.85L34.28,99.1a1.58,1.58,0,0,0,.63.13h.18a1.73,1.73,0,0,0,.32,0,1.6,1.6,0,0,0,.31-.1l14.91-6.28A1.61,1.61,0,0,0,51.57,91a1.5,1.5,0,0,0,0-.37V73.09a1.84,1.84,0,0,0-.06-.41L69.33,37.92h0a1.61,1.61,0,0,0,.6-1.18c0-.58,0-1.15,0-1.73A35,35,0,0,0,35,0ZM7.3,37.75A31.74,31.74,0,0,1,33.38,51.41V64.77l-13,5.4L4.08,37.93A29.23,29.23,0,0,1,7.3,37.75ZM35,78,22.6,72.77,35,67.61,47.32,72.8Zm1.32-31.63c-.48.54-1,1.1-1.39,1.67a35.47,35.47,0,0,0-5.55-5.67L49.66,6.84a31.55,31.55,0,0,1,6.6,4.59Zm-9.57-5.93a34.81,34.81,0,0,0-7.13-3.66l19-33.32a31.77,31.77,0,0,1,8.06,2ZM21.62,75.87l11.85,5V95.25l-11.85-5Zm15.09,4.91,11.67-4.91V90.26L36.71,95.17ZM49.24,70.1,36.62,64.78V51.21A31.63,31.63,0,0,1,65.7,37.91ZM62.56,34.51c-1,0-1.92.06-2.87.14l5.47-9.59a31.51,31.51,0,0,1,1.6,9.71A35.2,35.2,0,0,0,62.56,34.51Zm1.06-13.28-8,14a34.89,34.89,0,0,0-12,4.85l15-26.26A32,32,0,0,1,63.62,21.23ZM35,3.24,16.47,35.75A35.12,35.12,0,0,0,8,34.53L24.86,4.91A31.52,31.52,0,0,1,35,3.24ZM19.9,7.06,4.13,34.68l-.89.07A31.8,31.8,0,0,1,19.9,7.06Z"/></svg>