<svg xmlns="http://www.w3.org/2000/svg" viewBox="0 0 80 80"><path d="M40,80c-8.78,0-15.18-.51-20.15-1.62-5.41-1.2-9.29-3.12-12.2-6s-4.83-6.79-6-12.2C.51,55.18,0,48.78,0,40S.51,24.82,1.62,19.85c1.2-5.41,3.12-9.29,6-12.2s6.79-4.83,12.2-6C24.82.51,31.22,0,40,0S55.18.51,60.15,1.62c5.41,1.2,9.29,3.12,12.2,6s4.83,6.79,6,12.2C79.49,24.82,80,31.22,80,40s-.51,15.18-1.62,20.15c-1.2,5.42-3.12,9.29-6,12.2s-6.78,4.83-12.2,6C55.18,79.49,48.78,80,40,80ZM40,5c-8.4,0-14.46.48-19.06,1.5S13.39,9,11.18,11.18,7.49,16.49,6.5,20.94,5,31.6,5,40s.48,14.46,1.5,19.06c1,4.45,2.48,7.55,4.68,9.76s5.31,3.69,9.76,4.68S31.6,75,40,75s14.46-.48,19.06-1.5c4.45-1,7.55-2.48,9.76-4.68s3.69-5.31,4.68-9.76C74.52,54.46,75,48.4,75,40s-.48-14.46-1.5-19.06S71,13.39,68.82,11.18,63.51,7.49,59.06,6.5C54.46,5.48,48.4,5,40,5Z"/><path d="M59.48,43.28H42.81c-4.68,0-5.83-1.15-5.83-5.83V20.78a2.5,2.5,0,0,1,5,0v17.5h17.5a2.5,2.5,0,0,1,0,5ZM42,39.19h0Z"/></svg>