<svg xmlns="http://www.w3.org/2000/svg" viewBox="0 0 100 65.95"><path d="M67,0a2.48,2.48,0,0,0-2.48,2.48V15.19a2.48,2.48,0,0,0,5,0V5.07a28,28,0,1,1-19,5.26,2.48,2.48,0,1,0-2.92-4A33,33,0,1,0,67,0Z"/><path d="M50.41,23.66a2.48,2.48,0,0,0,.89,3.39l13.85,8.07a2.5,2.5,0,0,0,1.25.34,2.48,2.48,0,0,0,1.25-4.63L53.8,22.76A2.47,2.47,0,0,0,50.41,23.66Z"/><path d="M6.56,16.61H29.5a2.19,2.19,0,0,0,0-4.37H6.56a2.19,2.19,0,1,0,0,4.37Z"/><path d="M2.18,28.25h23a2.19,2.19,0,0,0,0-4.37H2.18a2.19,2.19,0,0,0,0,4.37Z"/><path d="M27.31,37.71a2.19,2.19,0,0,0-2.18-2.19H2.18a2.19,2.19,0,0,0,0,4.37h23A2.19,2.19,0,0,0,27.31,37.71Z"/><path d="M31.68,49.35a2.19,2.19,0,0,0-2.18-2.19H6.56a2.19,2.19,0,1,0,0,4.37H29.5A2.19,2.19,0,0,0,31.68,49.35Z"/></svg>