<svg xmlns="http://www.w3.org/2000/svg" viewBox="0 0 90 80"><path d="M51.25,11.54a6.26,6.26,0,1,1-12.5,0,6.26,6.26,0,1,1,12.5,0Zm1.12,8.72a11.64,11.64,0,0,0,3.88-8.72,11.25,11.25,0,1,0-22.5,0,11.64,11.64,0,0,0,3.88,8.72c-8.23,1.07-14.92,4.08-19.8,9.51-6.22,6.91-9.08,17.26-9.08,31v0A9.61,9.61,0,0,0,9.62,80H80.38a9.61,9.61,0,0,0,.87-19.19v0c0-13.74-2.86-24.09-9.08-31C67.29,24.34,60.6,21.33,52.37,20.26ZM68.45,33.11c5,5.6,7.8,14.48,7.8,27.66H13.75c0-13.18,2.76-22.06,7.8-27.66s12.6-8.3,23.45-8.3S63.47,27.58,68.45,33.11ZM80.38,65.77a4.62,4.62,0,1,1,0,9.23H9.62a4.62,4.62,0,1,1,0-9.23Z" style="fill-rule:evenodd"/></svg>