<svg xmlns="http://www.w3.org/2000/svg" viewBox="0 0 80 72.62"><path d="M77.87,60.23a7.21,7.21,0,0,0-5.13-2.13H71.23v-.93A23.66,23.66,0,0,0,47.6,33.54h-.09v-.67A7.47,7.47,0,0,0,46.94,30a7.57,7.57,0,0,0-1.63-2.44,7.42,7.42,0,0,0-2.43-1.63,7.56,7.56,0,0,0-5.76,0,7.42,7.42,0,0,0-2.43,1.63A7.57,7.57,0,0,0,33.06,30a7.47,7.47,0,0,0-.57,2.88v.67H32.4A23.66,23.66,0,0,0,8.77,57.17v.93H7.26a7.26,7.26,0,0,0,0,14.52H72.74a7.25,7.25,0,0,0,5.13-12.39ZM36.15,32.87a3.94,3.94,0,0,1,.29-1.48,3.9,3.9,0,0,1,.83-1.25,4,4,0,0,1,1.25-.84A3.94,3.94,0,0,1,40,29a3.85,3.85,0,0,1,1.47.29,4,4,0,0,1,1.26.84,3.9,3.9,0,0,1,.83,1.25,3.94,3.94,0,0,1,.29,1.48v.67h-7.7ZM12.43,57.17a20,20,0,0,1,20-20H47.6a20,20,0,0,1,20,20v.93H12.43ZM75.29,67.9A3.59,3.59,0,0,1,72.74,69H7.26a3.6,3.6,0,1,1,0-7.2H72.74a3.6,3.6,0,0,1,2.55,6.14Z" transform="translate(0 0)"/><path d="M21.42,14.88a8.41,8.41,0,0,0-1,7.08,7.59,7.59,0,0,0,1.4,2.65,7.7,7.7,0,0,0,2.3,1.91,1.88,1.88,0,0,0,.7.16,2.16,2.16,0,0,0,.71-.12,2.1,2.1,0,0,0,.6-.38,2,2,0,0,0,.41-.59,1.84,1.84,0,0,0,.16-.7,2.06,2.06,0,0,0-.12-.7,1.83,1.83,0,0,0-.39-.6,1.58,1.58,0,0,0-.58-.41,4.24,4.24,0,0,1-1.7-2.31,4.9,4.9,0,0,1-.11-2.12,4.71,4.71,0,0,1,.79-2,8.75,8.75,0,0,0-2-11,1.79,1.79,0,0,0-.61-.36,1.72,1.72,0,0,0-.71-.09A1.77,1.77,0,0,0,20,5.93a1.7,1.7,0,0,0-.36.61,1.91,1.91,0,0,0-.1.71,1.87,1.87,0,0,0,.61,1.26C20.24,8.63,23.45,11.54,21.42,14.88Z" transform="translate(0 0)"/><path d="M35.94,3.2c.14.12,3.35,3,1.32,6.37a8.41,8.41,0,0,0-1,7.08,7.69,7.69,0,0,0,3.7,4.56,1.79,1.79,0,0,0,1.4,0,1.82,1.82,0,0,0,1-1,1.85,1.85,0,0,0-.93-2.42,4.17,4.17,0,0,1-1.7-2.31,5,5,0,0,1-.12-2.12,4.92,4.92,0,0,1,.8-2,8.74,8.74,0,0,0-2-11A1.89,1.89,0,0,0,37.76.1a1.91,1.91,0,0,0-.71-.1,2.07,2.07,0,0,0-.69.18,1.86,1.86,0,0,0-.57.43,1.83,1.83,0,0,0-.36.62,1.91,1.91,0,0,0-.1.71,2.07,2.07,0,0,0,.18.69A2,2,0,0,0,35.94,3.2Z" transform="translate(0 0)"/><path d="M53.1,14.88a8.41,8.41,0,0,0-1,7.08,7.67,7.67,0,0,0,3.7,4.56,1.83,1.83,0,0,0,2.41-.93,1.84,1.84,0,0,0,0-1.4,1.8,1.8,0,0,0-1-1,4.24,4.24,0,0,1-1.7-2.31,5.06,5.06,0,0,1-.12-2.12,4.86,4.86,0,0,1,.8-2,8.79,8.79,0,0,0-2-11,1.82,1.82,0,0,0-1.32-.45,1.85,1.85,0,0,0-1.26.61,1.83,1.83,0,0,0,.15,2.58C51.92,8.63,55.13,11.54,53.1,14.88Z" transform="translate(0 0)"/></svg>