<svg xmlns="http://www.w3.org/2000/svg" viewBox="0 0 87.5 77"><path d="M45,78.5a9.42,9.42,0,0,1-4-.91c-9.32-4.36-39.7-20.82-39.7-49.38C1.25,13.48,13.47,1.5,28.5,1.5,35.16,1.5,40.93,4.75,45,8c4.07-3.2,9.84-6.45,16.5-6.45,15,0,27.25,12,27.25,26.72,0,28.55-30.38,45-39.7,49.37A9.42,9.42,0,0,1,45,78.5ZM28.5,6.5C16.23,6.5,6.25,16.24,6.25,28.21,6.25,53.82,34.43,69,43.07,73.06a4.43,4.43,0,0,0,3.86,0c8.64-4,36.82-19.24,36.82-44.84,0-12-10-21.72-22.25-21.72-6.06,0-11.42,3.58-14.85,6.58L45,14.52l-1.65-1.44C39.92,10.08,34.56,6.5,28.5,6.5Z" transform="translate(-1.25 -1.5)"/></svg>