<svg xmlns="http://www.w3.org/2000/svg" viewBox="0 0 80 68.61"><path d="M51.12,25.64a10.21,10.21,0,0,0-2.48-.3,10.31,10.31,0,0,0-7.54,3.3L40,29.85l-1.13-1.2a10.17,10.17,0,0,0-7.49-3.25,10,10,0,0,0-2.47.3,10.21,10.21,0,0,0-7.49,7.46,10.09,10.09,0,0,0-.3,2.48,8.54,8.54,0,0,0,.54,3.27c1.23,4,14.42,15.27,18.33,18.42,3.76-3,17.17-14.52,18.39-18.44a8.71,8.71,0,0,0,.55-3.31,10.07,10.07,0,0,0-.3-2.47A10.24,10.24,0,0,0,51.12,25.64Z"/><path d="M79.34,17A22.4,22.4,0,0,0,63,.66,22.12,22.12,0,0,0,57.55,0,22.54,22.54,0,0,0,41.07,7.22L40,8.43l-1.13-1.2A22.24,22.24,0,0,0,22.45.12,21.61,21.61,0,0,0,17,.78,22.37,22.37,0,0,0,.66,17.1,21.81,21.81,0,0,0,0,22.52a19.15,19.15,0,0,0,1.18,7.15C4,38.77,34.16,64,39.93,68.61c5.61-4.46,36.05-29.93,38.88-39A19.29,19.29,0,0,0,80,22.4,21.73,21.73,0,0,0,79.34,17ZM61.28,39.84c-1.52,4.9-19.35,21-21.32,21h0c-2,0-19.72-16-21.25-21A11.64,11.64,0,0,1,18,35.64a13.17,13.17,0,0,1,.39-3.23,13.31,13.31,0,0,1,9.73-9.7,13,13,0,0,1,3.22-.39A13.34,13.34,0,0,1,40,25.48a13.34,13.34,0,0,1,21.63,6.88A13.09,13.09,0,0,1,62,35.58,11.58,11.58,0,0,1,61.28,39.84Z"/></svg>