<svg xmlns="http://www.w3.org/2000/svg" viewBox="0 0 49.74 50"><path d="M49.58,13.48a1.43,1.43,0,0,0-1.24-.68H15.19L12.65,3.88a7.18,7.18,0,0,0-.93-2.07A3.74,3.74,0,0,0,10.47.6,5.41,5.41,0,0,0,9.33.13a3.67,3.67,0,0,0-1-.13H1.66A1.44,1.44,0,0,0,.59.45,1.58,1.58,0,0,0,.15,1.61a1.66,1.66,0,0,0,.19.78A1.31,1.31,0,0,0,.9,3a1.53,1.53,0,0,0,.76.21H8.35a1.14,1.14,0,0,1,.37,0,1.21,1.21,0,0,1,.46.42,3.13,3.13,0,0,1,.49,1.14l8.64,32.76a1.85,1.85,0,0,0,.32.58,1.61,1.61,0,0,0,.51.43,1.4,1.4,0,0,0,.64.15H40.87a1.5,1.5,0,0,0,.9-.3,1.44,1.44,0,0,0,.56-.76L49.8,15A1.65,1.65,0,0,0,49.58,13.48Zm-9.79,22H21L16,16H46.09Zm-3.07,6.46A3.68,3.68,0,0,0,34,43.12a4.11,4.11,0,0,0,0,5.7,3.82,3.82,0,0,0,5.52,0,4.11,4.11,0,0,0,0-5.7A3.72,3.72,0,0,0,36.72,41.94Zm-14.06,0a3.69,3.69,0,0,0-2,.55A4,4,0,0,0,18.75,46a3.93,3.93,0,0,0,1.15,2.85,3.82,3.82,0,0,0,5.52,0A4,4,0,0,0,26.56,46a4.43,4.43,0,0,0-.07-.81,3.45,3.45,0,0,0-.22-.75,3.83,3.83,0,0,0-.37-.69,4.67,4.67,0,0,0-.48-.6,4.72,4.72,0,0,0-.59-.5,3.13,3.13,0,0,0-.66-.38,3.45,3.45,0,0,0-.73-.23A4.11,4.11,0,0,0,22.66,41.94Z" transform="translate(-0.15)"/></svg>