<svg xmlns="http://www.w3.org/2000/svg" viewBox="0 0 41.67 41.66"><path d="M34.51,45.83h.06a4.12,4.12,0,0,0,2.93-1.22L43.15,39a2.08,2.08,0,0,0,.45-2.27,2.18,2.18,0,0,0-.45-.68l-8.34-8.33a2,2,0,0,0-.67-.45,2,2,0,0,0-.8-.16,2.07,2.07,0,0,0-1.47.61L28.55,31a15.71,15.71,0,0,1-6.24-3.32A15.61,15.61,0,0,1,19,21.45l3.32-3.32a2.21,2.21,0,0,0,.46-.68,2.06,2.06,0,0,0,0-1.59,2,2,0,0,0-.46-.68L14,6.85a2.13,2.13,0,0,0-2.94,0L5.39,12.5a4.15,4.15,0,0,0-1.22,3,31.84,31.84,0,0,0,9,21.39C21.24,45,31.55,45.78,34.51,45.83Zm-22-34.56,5.39,5.38-2.7,2.7a2.09,2.09,0,0,0-.56,1.9c0,.24,1.27,5.92,4.73,9.38s9.14,4.68,9.38,4.73a2.07,2.07,0,0,0,1,0,2,2,0,0,0,.88-.53l2.69-2.69,5.39,5.39-4.18,4.17a27.55,27.55,0,0,1-18.48-7.73A27.61,27.61,0,0,1,8.33,15.44ZM41.66,22.91h4.17A18.35,18.35,0,0,0,27.06,4.17V8.33C35.52,8.33,41.66,14.46,41.66,22.91Z" transform="translate(-4.17 -4.17)"/><path d="M27.08,16.67c4.38,0,6.25,1.87,6.25,6.25H37.5c0-6.72-3.7-10.42-10.42-10.42Z" transform="translate(-4.17 -4.17)"/></svg>