<svg xmlns="http://www.w3.org/2000/svg" viewBox="0 0 51.29 48.93"><path d="M3,49.86a.5.5,0,0,1-.49-.61l3-14.16A19.42,19.42,0,0,1,.93,22.67C.93,10.68,12.43.93,26.57.93,41,.93,52.21,10.12,52.21,21.86c0,12.22-11.74,22.55-25.64,22.55h0a29.12,29.12,0,0,1-11.22-2.18L3.27,49.78A.56.56,0,0,1,3,49.86ZM26.57,1.93C13,1.93,1.93,11.23,1.93,22.67a18.43,18.43,0,0,0,4.52,12,.46.46,0,0,1,.1.42L3.73,48.31,15,41.24a.5.5,0,0,1,.46,0,28.51,28.51,0,0,0,11.07,2.2h0c13.36,0,24.64-9.87,24.64-21.55C51.21,10.68,40.39,1.93,26.57,1.93Z" transform="translate(-0.93 -0.93)" style="fill:#333"/></svg>