<svg xmlns="http://www.w3.org/2000/svg" viewBox="0 0 47.83 43.67"><path d="M38.5,46.83h-27V39.58a13.52,13.52,0,0,1,8.91-12.7,9.35,9.35,0,0,1-4.22-5.05H14.58a11.51,11.51,0,0,0-11.5,11.5V37.5h-2V33.33A13.52,13.52,0,0,1,10,20.63a9.48,9.48,0,0,1-4.77-8.12,9.4,9.4,0,0,1,9.33-9.34,9.57,9.57,0,0,1,9.11,6.34,9.39,9.39,0,0,1,2.7,0,9.83,9.83,0,0,1,9-6.35,9.4,9.4,0,0,1,9.33,9.32A9.49,9.49,0,0,1,40,20.63a13.52,13.52,0,0,1,8.94,12.7V37.5h-2V33.33a11.51,11.51,0,0,0-11.5-11.5H33.81a9.35,9.35,0,0,1-4.22,5.05,13.52,13.52,0,0,1,8.91,12.7Zm-25-2h23V39.58a11.5,11.5,0,0,0-23,0ZM25,11.42a7.31,7.31,0,1,0,5.19,2.14A7.32,7.32,0,0,0,25,11.42Zm9.27,8.41h1.15a7.33,7.33,0,1,0,0-14.66A7.74,7.74,0,0,0,28.34,10a9.34,9.34,0,0,1,6,8.72A9.64,9.64,0,0,1,34.27,19.83ZM14.58,5.17a7.33,7.33,0,1,0,0,14.66h1.15a9.64,9.64,0,0,1-.06-1.08,9.28,9.28,0,0,1,2.73-6.6A9.43,9.43,0,0,1,21.75,10,7.58,7.58,0,0,0,14.58,5.17Z" transform="translate(-1.08 -3.17)"/></svg>