<svg xmlns="http://www.w3.org/2000/svg" xmlns:xlink="http://www.w3.org/1999/xlink" viewBox="0 0 30 14.08"><defs><linearGradient id="a" x1="2.88" y1="-4.14" x2="24.05" y2="15.16" gradientTransform="matrix(1, 0, 0, -1, 0, 16)" gradientUnits="userSpaceOnUse"><stop offset="0" stop-color="#ff7e8a"/><stop offset="1" stop-color="#feb37b"/></linearGradient><linearGradient id="b" x1="12.67" y1="12.1" x2="16.02" y2="12.35" xlink:href="#a"/><linearGradient id="c" x1="8.75" y1="12.06" x2="12.11" y2="12.32" xlink:href="#a"/><linearGradient id="d" x1="4.84" y1="12.06" x2="8.2" y2="12.32" xlink:href="#a"/></defs><path d="M30,8a1.18,1.18,0,0,0-1.29-1l-7.1.79a1,1,0,0,0-.44.15l-2.31,1.3H.76a.75.75,0,0,0-.69,1.07l1,2.24a2.65,2.65,0,0,0,2.46,1.61H18.09a2.71,2.71,0,0,0,2.47-1.61l.91-2.11L22.1,10,29,9.25A1.18,1.18,0,0,0,30,8Z" transform="translate(0 0)" style="fill:url(#a)"/><path d="M14,5.72l-.25.63a.85.85,0,0,0,.44,1.1.87.87,0,0,0,.31.07A.81.81,0,0,0,15.25,7l.29-.66a2.94,2.94,0,0,0-.41-3A1.34,1.34,0,0,1,15,1.8l.35-.53A.81.81,0,0,0,15.09.13.79.79,0,0,0,14,.41L13.61,1a3,3,0,0,0,.22,3.44A1.31,1.31,0,0,1,14,5.72Z" transform="translate(0 0)" style="fill:url(#b)"/><path d="M10.11,5.72l-.29.66a.86.86,0,0,0,.44,1.11,1.2,1.2,0,0,0,.32.06A.82.82,0,0,0,11.34,7l.28-.66a2.92,2.92,0,0,0-.41-3,1.33,1.33,0,0,1-.09-1.52l.34-.53A.8.8,0,0,0,11.18.16.81.81,0,0,0,10,.45L9.7,1a3,3,0,0,0,.22,3.44A1.27,1.27,0,0,1,10.11,5.72Z" transform="translate(0 0)" style="fill:url(#c)"/><path d="M6.19,5.72l-.28.66a.86.86,0,0,0,.44,1.11,1.13,1.13,0,0,0,.32.06A.81.81,0,0,0,7.42,7l.29-.66a2.94,2.94,0,0,0-.41-3,1.34,1.34,0,0,1-.1-1.52l.35-.53A.8.8,0,0,0,7.27.16.81.81,0,0,0,6.13.45L5.78,1A3,3,0,0,0,6,4.42,1.19,1.19,0,0,1,6.19,5.72Z" transform="translate(0 0)" style="fill:url(#d)"/></svg>