<svg xmlns="http://www.w3.org/2000/svg" viewBox="0 0 30 16.17"><path d="M29.18,8.34l-3-.41L25,4.86a2.14,2.14,0,0,0-2.09-1.32H19.49a.55.55,0,0,0-.57.47L17.78,10.3a.57.57,0,0,1-.57.47H2.12a.55.55,0,0,0-.57.47L1.23,13a.61.61,0,0,0,.57.7H3a2.14,2.14,0,0,0,2.18,2.43,3.34,3.34,0,0,0,3.07-2.43H22a2.15,2.15,0,0,0,2.18,2.43,3.31,3.31,0,0,0,3.07-2.43h1.48a.55.55,0,0,0,.57-.47L30,9.51A.92.92,0,0,0,29.18,8.34ZM7.08,13.52a1.73,1.73,0,0,1-1.65,1.39A1.12,1.12,0,0,1,4.3,13.52a1.71,1.71,0,0,1,1.64-1.39A1.13,1.13,0,0,1,7.08,13.52Zm13-5.69.47-2.65h2a.82.82,0,0,1,.79.51l.86,2.14Zm5.94,5.69a1.73,1.73,0,0,1-1.64,1.39,1.11,1.11,0,0,1-1.14-1.39,1.71,1.71,0,0,1,1.64-1.39A1.13,1.13,0,0,1,26.06,13.52Z" style="fill:#77b6f0"/><path d="M17.09,9.44,18.64.69A.61.61,0,0,0,18.07,0H3A1,1,0,1,0,3,2H4.64a1,1,0,0,1,0,2H2a1,1,0,1,0,0,2H3.63a1,1,0,0,1,1,1,1,1,0,0,1-1,1H1a1,1,0,0,0,0,2H16.49A.43.43,0,0,0,17.09,9.44Z" style="fill:#77b6f0"/></svg>