<svg xmlns="http://www.w3.org/2000/svg" viewBox="0 0 135 40"><path d="M135,7.92V7a12.21,12.21,0,0,0-.2-2,5.89,5.89,0,0,0-.61-1.72A6.12,6.12,0,0,0,131.41.76,7.53,7.53,0,0,0,129.5.18,19.12,19.12,0,0,0,127.37,0H7.64A15.46,15.46,0,0,0,5.49.18,7.78,7.78,0,0,0,3.6.75,6.31,6.31,0,0,0,2,1.82,5.7,5.7,0,0,0,.83,3.28,6.21,6.21,0,0,0,.21,5,11.22,11.22,0,0,0,0,7V33.07a12.2,12.2,0,0,0,.19,2A5.6,5.6,0,0,0,.81,36.8,5.61,5.61,0,0,0,2,38.18a5.72,5.72,0,0,0,1.6,1.06,7,7,0,0,0,1.89.58A19.1,19.1,0,0,0,7.63,40H127.36a17,17,0,0,0,2.14-.17,7.53,7.53,0,0,0,1.91-.58,6,6,0,0,0,1.6-1.07A5.59,5.59,0,0,0,134.79,35a13.43,13.43,0,0,0,.21-2ZM73.78,10.71a1.89,1.89,0,0,1,.43-.77,2,2,0,0,1,.71-.53,2.11,2.11,0,0,1,.86-.18c1.26,0,2,.86,2,2.27v.31H74.61a1.35,1.35,0,0,0,.06.49,1.17,1.17,0,0,0,1.14.8,1,1,0,0,0,.62-.11,1,1,0,0,0,.45-.43h.86a1.84,1.84,0,0,1-1.95,1.3,2,2,0,0,1-.87-.17,2.11,2.11,0,0,1-.71-.51,1.89,1.89,0,0,1-.43-.77,2,2,0,0,1-.07-.87A1.94,1.94,0,0,1,73.78,10.71ZM69.23,9.32H73v.75H71.53v3.75h-.88V10.07H69.23Zm-8.16,2.52H60.4v-.69h.66c.54,0,.81-.21.81-.58s-.26-.58-.81-.58-.86.21-.92.56h-.85a1.56,1.56,0,0,1,.61-1,1.6,1.6,0,0,1,1.16-.3c1.07,0,1.68.49,1.68,1.25a.86.86,0,0,1-.19.58.92.92,0,0,1-.52.34v.07a1,1,0,0,1,.64.34,1,1,0,0,1,.24.67c0,.86-.73,1.43-1.84,1.43s-1.78-.46-1.86-1.37h.88c.09.4.46.61,1,.61s1-.26,1-.67S61.7,11.84,61.07,11.84ZM49.35,9.32h.86v.74h.06a1.57,1.57,0,0,1,.6-.6,1.48,1.48,0,0,1,.82-.21c1.14,0,1.87.89,1.87,2.32s-.73,2.33-1.86,2.33a1.53,1.53,0,0,1-.81-.18,1.47,1.47,0,0,1-.58-.58h-.07v2.18h-.89ZM41.93,10c-.5,0-.84.18-.94.5h-.86c.09-.77.82-1.27,1.84-1.27a1.56,1.56,0,0,1,1.76,1.34c0,.06,0,.12,0,.18v3.07h-.86v-.63h-.07a1.51,1.51,0,0,1-.58.54,1.58,1.58,0,0,1-.77.17,1.36,1.36,0,0,1-1.38-.8,1.3,1.3,0,0,1-.12-.55c0-.81.6-1.28,1.67-1.34l1.22-.08v-.38C42.85,10.27,42.54,10,41.93,10Zm-5.24,1.19h-.82v-.81h.79a.94.94,0,0,0,.41,0,.84.84,0,0,0,.36-.19,1,1,0,0,0,.26-.32,1.12,1.12,0,0,0,.1-.4c0-.55-.42-.91-1.12-.91a1,1,0,0,0-.42,0,.89.89,0,0,0-.38.18,1.18,1.18,0,0,0-.27.32,1,1,0,0,0-.13.41h-.88a1.9,1.9,0,0,1,.2-.74,2,2,0,0,1,.48-.6,1.9,1.9,0,0,1,1.43-.41c1.18,0,2,.66,2,1.61a1.3,1.3,0,0,1-.3.87,1.38,1.38,0,0,1-.78.49v.07A1.4,1.4,0,0,1,39,12.18h0a2,2,0,0,1-.24.76,2.09,2.09,0,0,1-.51.6,1.87,1.87,0,0,1-.7.36,2,2,0,0,1-.78.06,2,2,0,0,1-1.5-.41,2,2,0,0,1-.51-.6,1.82,1.82,0,0,1-.23-.76h.89c0,.57.57.94,1.35.94s1.28-.41,1.28-1S37.52,11.19,36.69,11.19Zm-18.53-.12a4.75,4.75,0,0,1,.91-1.57,5,5,0,0,1,3.21-1.65,4.81,4.81,0,0,1-1.12,3.49,4.17,4.17,0,0,1-3.23,1.53A4.78,4.78,0,0,1,18.16,11.07ZM25.3,26.92c-.9,1.34-1.84,2.64-3.32,2.67s-1.94-.85-3.59-.85-2.2.82-3.58.88-2.51-1.43-3.43-2.75c-1.85-2.71-3.3-7.63-1.36-11a5.31,5.31,0,0,1,4.47-2.73c1.42,0,2.74,1,3.61,1s2.48-1.18,4.16-1a5,5,0,0,1,2.25.6,5.18,5.18,0,0,1,1.74,1.55,5,5,0,0,0-2.35,4.16,4.75,4.75,0,0,0,2.92,4.39A11.06,11.06,0,0,1,25.3,26.92Zm17.26,2.7-1.13-3.36H36.7l-1.14,3.36h-2L38,17.2h2.08L44.6,29.62Zm2.65-20.3h3v.75H46.09v3.75h-.88Zm5.3,20.4a3.05,3.05,0,0,1-1.65-.39,3,3,0,0,1-1.2-1.2h0v4.49h-1.9v-12h1.8v1.5h0a3.21,3.21,0,0,1,2.88-1.6c2.3,0,3.82,1.82,3.82,4.62S52.78,29.72,50.51,29.72Zm4.23-14.28v-.77H55a.83.83,0,0,0,.53-.16.74.74,0,0,0,.28-.47l.07-.22-1.63-4.5h1l1.13,3.58h.07L57.6,9.32h1L56.84,14c-.39,1.09-.81,1.45-1.73,1.45Zm5.73,14.28a3.11,3.11,0,0,1-2.85-1.59h0v4.49h-1.9v-12h1.8v1.5h0a3.21,3.21,0,0,1,2.88-1.6c2.3,0,3.81,1.82,3.81,4.62S62.75,29.72,60.47,29.72Zm7.63-15.9h-.88V10.71h-.07l-2.08,3.11h-.88V9.32h.88v3.1h.07l2.08-3.1h.88Zm5.57,16c-2.76,0-4.61-1.42-4.73-3.67h1.9c.14,1.23,1.33,2,3,2s2.69-.81,2.69-1.92-.68-1.54-2.29-1.93L72.6,24c-2.28-.55-3.34-1.62-3.34-3.35,0-2.14,1.87-3.61,4.52-3.61s4.42,1.47,4.48,3.61H76.39c-.11-1.24-1.14-2-2.64-2s-2.52.76-2.52,1.86c0,.88.66,1.4,2.26,1.79l1.37.34c2.54.6,3.6,1.62,3.6,3.44,0,2.29-1.85,3.75-4.79,3.75ZM84.19,22H82.47v5c0,.78.35,1.14,1.1,1.14a2.56,2.56,0,0,0,.62-.05v1.47a4.77,4.77,0,0,1-1,.08c-1.83,0-2.54-.69-2.54-2.44V22H79.29V20.57h1.32V18.42h1.86v2.15h1.72Zm-.63-8.22h-2V9.32h2c.88,0,1.4.45,1.4,1.14a1,1,0,0,1-.77,1v.07a1,1,0,0,1,.69.32,1,1,0,0,1,.28.71c0,.75-.61,1.26-1.6,1.26Zm5.93,15.91c-2.64,0-4.3-1.78-4.3-4.64s1.68-4.63,4.3-4.63,4.29,1.79,4.29,4.63-1.66,4.68-4.29,4.68Zm10.45-7.45a2.6,2.6,0,0,0-.83-.11,1.79,1.79,0,0,0-.79.14,1.77,1.77,0,0,0-.66.45,2.11,2.11,0,0,0-.41.69,2,2,0,0,0-.08.8v5.37H95.31v-9h1.78v1.54h0a2.17,2.17,0,0,1,2.18-1.64,3.38,3.38,0,0,1,.63.07Zm8.67,3.28h-6.39v.11a2.31,2.31,0,0,0,.64,1.83,2.18,2.18,0,0,0,.82.56,2.46,2.46,0,0,0,1,.18,2,2,0,0,0,2.07-1.2h1.76c-.25,1.65-1.85,2.77-3.9,2.77-2.63,0-4.27-1.76-4.27-4.59s1.65-4.68,4.2-4.68,4.07,1.72,4.07,4.46Z"/><path d="M76.83,10.71a1,1,0,0,0-.24-.38,1.08,1.08,0,0,0-.37-.26,1.11,1.11,0,0,0-.44-.08,1.38,1.38,0,0,0-.45.08,1.22,1.22,0,0,0-.38.26,1.19,1.19,0,0,0-.25.38,1.17,1.17,0,0,0-.09.45h2.28A1.14,1.14,0,0,0,76.83,10.71Z"/><path d="M51.44,13.1c.75,0,1.2-.58,1.2-1.53S52.19,10,51.44,10s-1.22.59-1.22,1.53S50.69,13.1,51.44,13.1Z"/><path d="M40.85,12.51c0,.4.35.64.83.64a1,1,0,0,0,.43,0,1.36,1.36,0,0,0,.37-.21.93.93,0,0,0,.26-.33,1.19,1.19,0,0,0,.11-.41v-.37l-1.1.07C41.13,11.9,40.85,12.11,40.85,12.51Z"/><path d="M83.33,11.82h-.94v1.32h1c.53,0,.81-.23.81-.66S83.93,11.82,83.33,11.82Z"/><path d="M84.06,10.58c0-.35-.22-.58-.69-.58h-1v1.17h.88C83.81,11.17,84.06,11,84.06,10.58Z"/><path d="M50,22.06c-1.42,0-2.37,1.23-2.37,3s1,3.05,2.37,3.05,2.4-1.2,2.4-3.05S51.43,22.06,50,22.06Z"/><polygon points="39.04 19.27 37.19 24.72 40.94 24.72 39.09 19.27 39.04 19.27"/><path d="M106.15,22.63a2.06,2.06,0,0,0-.74-.5,2.18,2.18,0,0,0-.87-.17,2.47,2.47,0,0,0-.89.17,2.52,2.52,0,0,0-.75.5,2.31,2.31,0,0,0-.67,1.63h4.53a2.2,2.2,0,0,0-.14-.88A2,2,0,0,0,106.15,22.63Z"/><path d="M60,22.06c-1.42,0-2.38,1.23-2.38,3s1,3.05,2.38,3.05,2.39-1.2,2.39-3.05S61.39,22.06,60,22.06Z"/><path d="M89.49,22c-1.51,0-2.4,1.16-2.4,3.1s.89,3.11,2.4,3.11,2.4-1.14,2.4-3.11S91,22,89.49,22Z"/></svg>