<svg xmlns="http://www.w3.org/2000/svg" viewBox="0 0 135 40"><path d="M130,0H5A5,5,0,0,0,0,5V35a5,5,0,0,0,5,5H130a5,5,0,0,0,5-5V5A5,5,0,0,0,130,0ZM83.66,7.77a3.23,3.23,0,0,1,1-.68,3.07,3.07,0,0,1,2.38,0,3.16,3.16,0,0,1,1,5.13,3.1,3.1,0,0,1-4.4,0h0a3.26,3.26,0,0,1,0-4.45ZM71.52,7h4.34v6h-.77V7.74h-2.8V13h-.77Zm-4.7,0,1.48,3.44L69.74,7h.91l-2.27,5.06a1.47,1.47,0,0,1-.52.75,1.42,1.42,0,0,1-.86.32,1.54,1.54,0,0,1-.6-.13l.2-.71a.8.8,0,0,0,.4.11.69.69,0,0,0,.42-.1.94.94,0,0,0,.27-.38l.22-.48L65.91,7ZM55.28,8.79a2.84,2.84,0,0,1,.67-1,3.23,3.23,0,0,1,1-.68,3.16,3.16,0,0,1,1.21-.22,2.66,2.66,0,0,1,1.21.25,2.75,2.75,0,0,1,1,.75l-.54.52a2,2,0,0,0-.74-.58,1.87,1.87,0,0,0-.93-.18,2.31,2.31,0,0,0-.9.16,2.14,2.14,0,0,0-.76.5,2.59,2.59,0,0,0,0,3.47,2.14,2.14,0,0,0,.76.5,2.31,2.31,0,0,0,.9.16,2.17,2.17,0,0,0,1-.24,2.56,2.56,0,0,0,.81-.65l.54.54a2.83,2.83,0,0,1-1,.78A3.17,3.17,0,0,1,56,12.23a2.84,2.84,0,0,1-.67-1,3.47,3.47,0,0,1,0-2.42ZM41.37,12.27H42a2.86,2.86,0,0,0,.64-1.07,2.73,2.73,0,0,0,.12-1.2V7h4v5.26h.67v2h-.74V13H42.11v1.27h-.74ZM12.52,7.48l14.27,8.11-3.86,3.87L10.76,7.34A1.76,1.76,0,0,1,12.52,7.48ZM10,31.06V9a2.15,2.15,0,0,1,.26-1.14L22.43,20,10.24,32.19A2.22,2.22,0,0,1,10,31.06Zm2.54,1.47a1.78,1.78,0,0,1-1.77.14L22.93,20.45l3.94,3.92ZM32,21.45,27.5,24l-4.08-4,4-4L32,18.56C33.42,19.35,33.42,20.65,32,21.45Zm20.33,6.91a6,6,0,0,1-4.61,1.85,6.63,6.63,0,0,1-2.61-.43,6.45,6.45,0,0,1-2.23-1.41,6.69,6.69,0,0,1-1.5-2.18,6.54,6.54,0,0,1,0-5.17,6.69,6.69,0,0,1,1.5-2.18,6.45,6.45,0,0,1,2.23-1.41A6.55,6.55,0,0,1,47.74,17a6.05,6.05,0,0,1,2.45.48,6.23,6.23,0,0,1,2.08,1.39L51,20.14a4.58,4.58,0,0,0-3.27-1.29,4.8,4.8,0,1,0,0,9.6,4.41,4.41,0,0,0,1.8-.31,4.23,4.23,0,0,0,1.53-1,3.77,3.77,0,0,0,1-2.27H47.74v-1.8L53.81,23a6.09,6.09,0,0,1,.1,1.13,6,6,0,0,1-1.56,4.23Zm1.06-16.14a3.1,3.1,0,0,1-4.4,0h0a3.26,3.26,0,0,1,0-4.45,3.23,3.23,0,0,1,1-.68,3.07,3.07,0,0,1,2.38,0,3.16,3.16,0,0,1,1,5.13Zm9,16.14A4.2,4.2,0,0,1,58,30.17a4.25,4.25,0,0,1,.81-8.42h0a4.2,4.2,0,0,1,3,1.22,4.27,4.27,0,0,1,.51,5.39ZM63.68,13h-.77V7.74H61.23V7h4.12v.74H63.68Zm8,15.36a4.25,4.25,0,0,1-5.89,1.18,4.18,4.18,0,0,1-.65-.53A4.31,4.31,0,0,1,64,26.84,4.25,4.25,0,0,1,71.15,23a4.32,4.32,0,0,1,.92,1.39A4.22,4.22,0,0,1,72.41,26a4.3,4.3,0,0,1-.71,2.36Zm9.59,1.21c0,3.14-1.81,4.43-4,4.43a4,4,0,0,1-3.77-2.51l1.63-.68A2.37,2.37,0,0,0,76,31.89a2.32,2.32,0,0,0,1.3.43c1.4,0,2.27-.87,2.27-2.5v-.61H79.5a2.84,2.84,0,0,1-1,.75,2.91,2.91,0,0,1-1.23.25,4.26,4.26,0,0,1,0-8.51,3,3,0,0,1,2.24,1h.07V22H81.3ZM81.77,13H81V10.29H78V13h-.77V7H78V9.57h3V7h.77ZM84.5,30H82.63V17.5H84.5Zm3.9-1.78a2.15,2.15,0,0,0,1.23.33,2.52,2.52,0,0,0,1.2-.31,2.47,2.47,0,0,0,.89-.87l1.45,1a4.26,4.26,0,0,1-1.53,1.39,4.35,4.35,0,0,1-2,.49A4.19,4.19,0,0,1,88,29.94,3.94,3.94,0,0,1,86.62,29a3.9,3.9,0,0,1-.91-1.39,4.14,4.14,0,0,1-.3-1.63,4,4,0,0,1,1.08-3,3.86,3.86,0,0,1,1.33-.93A3.93,3.93,0,0,1,93,24.16c0,.09.07.18.1.27l.21.45-5.69,2.35A2.12,2.12,0,0,0,88.4,28.22Zm7.68-16.3a1.72,1.72,0,0,1-.41.55,1.85,1.85,0,0,1-1.28.49h-2.3V7h2.17a1.77,1.77,0,0,1,1.22.46,1.38,1.38,0,0,1,.39.53,1.56,1.56,0,0,1,.13.64,1.25,1.25,0,0,1-.22.75,1.28,1.28,0,0,1-.59.49,1.59,1.59,0,0,1,.73.52,1.34,1.34,0,0,1,.29.86A1.54,1.54,0,0,1,96.08,11.92Zm9.58,11a3.87,3.87,0,0,1-3.84,2.33H99.21V30H97.34V17.5h4.48a3.89,3.89,0,0,1,3.84,5.43ZM108.8,30h-1.87V17.5h1.87Zm8.38,0h-1.8V29h-.06A2.52,2.52,0,0,1,113,30.2a2.88,2.88,0,0,1-2.14-.72,3,3,0,0,1-.69-.92,2.84,2.84,0,0,1-.28-1.11c0-1.81,1.81-2.81,3.6-2.81a4.1,4.1,0,0,1,2,.48V25a1.64,1.64,0,0,0-.21-.68,1.81,1.81,0,0,0-1.08-.87,3,3,0,0,0-1.7.15,1.73,1.73,0,0,0-.71.71l-1.74-.7a3.51,3.51,0,0,1,3.33-1.91h0c2.13,0,3.79,1.27,3.79,3.46Zm3.52,3.79h-2l1.9-4.21L117.32,22h2l2.22,5.42h.06L123.74,22h2.08Z"/><path d="M90.4,23.61a1.68,1.68,0,0,0-.93-.21,2.29,2.29,0,0,0-.89.22,2.51,2.51,0,0,0-.74.55,2.23,2.23,0,0,0-.47.8,2.33,2.33,0,0,0-.12.91l3.8-1.58A1.6,1.6,0,0,0,90.4,23.61Z"/><path d="M78.35,23.66a2.46,2.46,0,0,0-.92-.24,2.59,2.59,0,0,0,0,5.16,2.27,2.27,0,0,0,.92-.23,2.37,2.37,0,0,0,.76-.57,2.23,2.23,0,0,0,.48-.83,2.26,2.26,0,0,0,.11-1,2.49,2.49,0,0,0-.12-.94,2.33,2.33,0,0,0-1.23-1.4Z"/><path d="M101.85,19.24H99.2V23.5h2.61a2.13,2.13,0,0,0,0-4.26Z"/><path d="M59.58,23.6a2.72,2.72,0,0,0-1.52-.11,2.58,2.58,0,0,0-2,2.13,2.55,2.55,0,0,0,2.7,3,2.43,2.43,0,0,0,1-.22,2.39,2.39,0,0,0,1.3-1.4,2.14,2.14,0,0,0,.15-1,2.58,2.58,0,0,0-1.64-2.4Z"/><path d="M68.9,23.6a2.68,2.68,0,0,0-1.51-.11,2.59,2.59,0,0,0-1.94,3.11,2.47,2.47,0,0,0,.18.52,2.71,2.71,0,0,0,1,1.12,2.55,2.55,0,0,0,1.48.34,2.43,2.43,0,0,0,1-.22,2.39,2.39,0,0,0,1.3-1.4,2.14,2.14,0,0,0,.15-1,2.58,2.58,0,0,0-1.64-2.4Z"/><path d="M111.65,27.49c0,.75.85,1.06,1.46,1.06h0a2.22,2.22,0,0,0,1.47-.59,2.27,2.27,0,0,0,.72-1.41,3.38,3.38,0,0,0-1.7-.42C112.71,26.16,111.65,26.49,111.65,27.49Z"/><path d="M51.21,7.61a2.31,2.31,0,0,0-1.63.67,2.57,2.57,0,0,0,0,3.44,2.32,2.32,0,0,0,3.26,0,2.57,2.57,0,0,0,0-3.44A2.31,2.31,0,0,0,51.21,7.61Z"/><path d="M94.41,10.27H92.89v2h1.55a1,1,0,0,0,.39-.07,1,1,0,0,0,.33-.24,1,1,0,0,0,.28-.68,1,1,0,0,0-.29-.71A1.07,1.07,0,0,0,94.41,10.27Z"/><path d="M85.86,12.39a2.31,2.31,0,0,0,1.63-.67,2.57,2.57,0,0,0,0-3.44,2.32,2.32,0,0,0-3.26,0,2.57,2.57,0,0,0,0,3.44A2.31,2.31,0,0,0,85.86,12.39Z"/><path d="M45.93,7.74H43.5V10a4,4,0,0,1-.57,2.3h3Z"/><path d="M94.64,9.5A.87.87,0,0,0,95,9.28.86.86,0,0,0,95.17,9a.81.81,0,0,0,.08-.34.7.7,0,0,0-.06-.35A1,1,0,0,0,95,8a.85.85,0,0,0-.67-.29H92.9V9.57h1.4A.8.8,0,0,0,94.64,9.5Z"/></svg>