<svg xmlns="http://www.w3.org/2000/svg" viewBox="0 0 22 22" style="fill:#797A7B"><path d="M22,6.47a8,8,0,0,0-.51-2.67,5.3,5.3,0,0,0-1.28-1.95A5.45,5.45,0,0,0,18.25.58,8,8,0,0,0,15.58.07C14.4,0,14,0,11,0S7.68,0,6.51.06A8.22,8.22,0,0,0,3.84.58,5.27,5.27,0,0,0,1.89,1.85,5.32,5.32,0,0,0,.62,3.79,8.1,8.1,0,0,0,.11,6.46C.05,7.64,0,8,0,11s0,3.36.06,4.54a8,8,0,0,0,.51,2.67,5.51,5.51,0,0,0,1.28,1.95,5.29,5.29,0,0,0,1.94,1.26,8.28,8.28,0,0,0,2.67.52C7.68,22,8.05,22,11,22s3.36,0,4.53-.06a8.28,8.28,0,0,0,2.67-.52,5.62,5.62,0,0,0,3.22-3.21A8.1,8.1,0,0,0,22,15.54C22,14.36,22,14,22,11S22,7.64,22,6.47Zm-2,9a6.13,6.13,0,0,1-.38,2,3.65,3.65,0,0,1-2.09,2.09,6.13,6.13,0,0,1-2,.38C14.33,20,14,20,11.05,20S7.76,20,6.6,20a6.13,6.13,0,0,1-2-.38,3.44,3.44,0,0,1-1.26-.82,3.35,3.35,0,0,1-.82-1.26,6,6,0,0,1-.38-2.05C2.05,14.29,2,14,2,11s0-3.29.07-4.44a5.77,5.77,0,0,1,.38-2A3.24,3.24,0,0,1,3.3,3.26a3.61,3.61,0,0,1,1.26-.82,6.21,6.21,0,0,1,2.05-.38C7.77,2,8.11,2,11.05,2s3.29,0,4.44.06a6,6,0,0,1,2,.38,3.48,3.48,0,0,1,1.27.82,3.56,3.56,0,0,1,.82,1.27,6.07,6.07,0,0,1,.38,2c.05,1.16.06,1.51.06,4.44S20.05,14.29,20,15.45Z" transform="translate(-0.04)"/><path d="M11,5.35A5.65,5.65,0,1,0,16.69,11,5.65,5.65,0,0,0,11,5.35Zm0,9.32A3.67,3.67,0,1,1,14.71,11,3.67,3.67,0,0,1,11,14.67Z" transform="translate(-0.04)"/><path d="M18.24,5.13a1.32,1.32,0,1,1-1.32-1.32A1.33,1.33,0,0,1,18.24,5.13Z" transform="translate(-0.04)"/></svg>