<svg xmlns="http://www.w3.org/2000/svg" viewBox="0 0 22.03 13.21" style="fill:#797A7B"><path d="M11.73,13.6c.74,0,.74-1.06.74-1.47a1.57,1.57,0,0,1,1.46-1.46c.74,0,2,1.25,2.94,2.2.73.73.73.73,1.46.73h2.2A1.49,1.49,0,0,0,22,12.13c0-.46-.5-1.23-2.2-2.93-1.47-1.47-2.22-.71,0-3.67,1.35-1.8,2.34-3.43,2.17-3.9S18.05.46,17.6,1.13A26.38,26.38,0,0,0,15.4,4.8C14.67,6.27,14.59,7,13.93,7s-.73-1.42-.73-2.2c0-2.42.35-4.14-.73-4.4h-2.2a4.28,4.28,0,0,0-2.2.73s-.91.71-.74.74S8.8,1.56,8.8,2.6V4.07S8.81,7,8.07,7,5.87,4.07,4.4,1.87c-.58-.87-.73-.74-1.47-.74s-1.46,0-2.2,0-.82.47-.73.71c1.47,3.66,2.52,6,5.31,8.87C7.86,13.4,9.57,13.54,11,13.6,11.37,13.62,11,13.6,11.73,13.6Z" transform="translate(0.03 -0.4)"/></svg>